<?xml version="1.0" standalone="no"?>
<svg xmlns:xlink="http://www.w3.org/1999/xlink" id="wave" style="transform:rotate(180deg); transition: 0.3s" viewBox="0 0 1440 490" version="1.1" xmlns="http://www.w3.org/2000/svg"><defs><linearGradient id="sw-gradient-0" x1="0" x2="0" y1="1" y2="0"><stop stop-color="rgba(165.195, 149.301, 234.936, 1)" offset="0%"/><stop stop-color="rgba(75.224, 0, 134.757, 1)" offset="100%"/></linearGradient></defs><path style="transform:translate(0, 0px); opacity:1" fill="url(#sw-gradient-0)" d="M0,49L80,49C160,49,320,49,480,114.3C640,180,800,310,960,318.5C1120,327,1280,212,1440,155.2C1600,98,1760,98,1920,98C2080,98,2240,98,2400,155.2C2560,212,2720,327,2880,326.7C3040,327,3200,212,3360,171.5C3520,131,3680,163,3840,171.5C4000,180,4160,163,4320,155.2C4480,147,4640,147,4800,196C4960,245,5120,343,5280,351.2C5440,359,5600,278,5760,269.5C5920,261,6080,327,6240,310.3C6400,294,6560,196,6720,179.7C6880,163,7040,229,7200,277.7C7360,327,7520,359,7680,326.7C7840,294,8000,196,8160,130.7C8320,65,8480,33,8640,81.7C8800,131,8960,261,9120,277.7C9280,294,9440,196,9600,163.3C9760,131,9920,163,10080,155.2C10240,147,10400,98,10560,106.2C10720,114,10880,180,11040,187.8C11200,196,11360,147,11440,122.5L11520,98L11520,490L11440,490C11360,490,11200,490,11040,490C10880,490,10720,490,10560,490C10400,490,10240,490,10080,490C9920,490,9760,490,9600,490C9440,490,9280,490,9120,490C8960,490,8800,490,8640,490C8480,490,8320,490,8160,490C8000,490,7840,490,7680,490C7520,490,7360,490,7200,490C7040,490,6880,490,6720,490C6560,490,6400,490,6240,490C6080,490,5920,490,5760,490C5600,490,5440,490,5280,490C5120,490,4960,490,4800,490C4640,490,4480,490,4320,490C4160,490,4000,490,3840,490C3680,490,3520,490,3360,490C3200,490,3040,490,2880,490C2720,490,2560,490,2400,490C2240,490,2080,490,1920,490C1760,490,1600,490,1440,490C1280,490,1120,490,960,490C800,490,640,490,480,490C320,490,160,490,80,490L0,490Z"/><defs><linearGradient id="sw-gradient-1" x1="0" x2="0" y1="1" y2="0"><stop stop-color="rgba(37.061, 0, 75.561, 1)" offset="0%"/><stop stop-color="rgba(82.736, 68.365, 239.489, 1)" offset="100%"/></linearGradient></defs><path style="transform:translate(0, 50px); opacity:0.9" fill="url(#sw-gradient-1)" d="M0,245L80,204.2C160,163,320,82,480,114.3C640,147,800,294,960,359.3C1120,425,1280,408,1440,343C1600,278,1760,163,1920,98C2080,33,2240,16,2400,81.7C2560,147,2720,294,2880,318.5C3040,343,3200,245,3360,171.5C3520,98,3680,49,3840,32.7C4000,16,4160,33,4320,89.8C4480,147,4640,245,4800,253.2C4960,261,5120,180,5280,147C5440,114,5600,131,5760,114.3C5920,98,6080,49,6240,81.7C6400,114,6560,229,6720,302.2C6880,376,7040,408,7200,375.7C7360,343,7520,245,7680,179.7C7840,114,8000,82,8160,89.8C8320,98,8480,147,8640,187.8C8800,229,8960,261,9120,294C9280,327,9440,359,9600,318.5C9760,278,9920,163,10080,171.5C10240,180,10400,310,10560,326.7C10720,343,10880,245,11040,196C11200,147,11360,147,11440,147L11520,147L11520,490L11440,490C11360,490,11200,490,11040,490C10880,490,10720,490,10560,490C10400,490,10240,490,10080,490C9920,490,9760,490,9600,490C9440,490,9280,490,9120,490C8960,490,8800,490,8640,490C8480,490,8320,490,8160,490C8000,490,7840,490,7680,490C7520,490,7360,490,7200,490C7040,490,6880,490,6720,490C6560,490,6400,490,6240,490C6080,490,5920,490,5760,490C5600,490,5440,490,5280,490C5120,490,4960,490,4800,490C4640,490,4480,490,4320,490C4160,490,4000,490,3840,490C3680,490,3520,490,3360,490C3200,490,3040,490,2880,490C2720,490,2560,490,2400,490C2240,490,2080,490,1920,490C1760,490,1600,490,1440,490C1280,490,1120,490,960,490C800,490,640,490,480,490C320,490,160,490,80,490L0,490Z"/><defs><linearGradient id="sw-gradient-2" x1="0" x2="0" y1="1" y2="0"><stop stop-color="rgba(120.119, 62, 243, 1)" offset="0%"/><stop stop-color="rgba(255, 179, 11, 1)" offset="100%"/></linearGradient></defs><path style="transform:translate(0, 100px); opacity:0.8" fill="url(#sw-gradient-2)" d="M0,98L80,81.7C160,65,320,33,480,32.7C640,33,800,65,960,98C1120,131,1280,163,1440,171.5C1600,180,1760,163,1920,155.2C2080,147,2240,147,2400,163.3C2560,180,2720,212,2880,196C3040,180,3200,114,3360,147C3520,180,3680,310,3840,375.7C4000,441,4160,441,4320,441C4480,441,4640,441,4800,392C4960,343,5120,245,5280,196C5440,147,5600,147,5760,138.8C5920,131,6080,114,6240,147C6400,180,6560,261,6720,245C6880,229,7040,114,7200,73.5C7360,33,7520,65,7680,114.3C7840,163,8000,229,8160,245C8320,261,8480,229,8640,220.5C8800,212,8960,229,9120,269.5C9280,310,9440,376,9600,383.8C9760,392,9920,343,10080,334.8C10240,327,10400,359,10560,375.7C10720,392,10880,392,11040,367.5C11200,343,11360,294,11440,269.5L11520,245L11520,490L11440,490C11360,490,11200,490,11040,490C10880,490,10720,490,10560,490C10400,490,10240,490,10080,490C9920,490,9760,490,9600,490C9440,490,9280,490,9120,490C8960,490,8800,490,8640,490C8480,490,8320,490,8160,490C8000,490,7840,490,7680,490C7520,490,7360,490,7200,490C7040,490,6880,490,6720,490C6560,490,6400,490,6240,490C6080,490,5920,490,5760,490C5600,490,5440,490,5280,490C5120,490,4960,490,4800,490C4640,490,4480,490,4320,490C4160,490,4000,490,3840,490C3680,490,3520,490,3360,490C3200,490,3040,490,2880,490C2720,490,2560,490,2400,490C2240,490,2080,490,1920,490C1760,490,1600,490,1440,490C1280,490,1120,490,960,490C800,490,640,490,480,490C320,490,160,490,80,490L0,490Z"/></svg>