<?xml version="1.0" standalone="no"?>
<svg xmlns:xlink="http://www.w3.org/1999/xlink" id="wave" style="transform:rotate(180deg); transition: 0.3s" viewBox="0 0 1440 490" version="1.1" xmlns="http://www.w3.org/2000/svg"><defs><linearGradient id="sw-gradient-0" x1="0" x2="0" y1="1" y2="0"><stop stop-color="rgba(165.195, 149.301, 234.936, 1)" offset="0%"/><stop stop-color="rgba(134.698, 144.971, 255, 1)" offset="100%"/></linearGradient></defs><path style="transform:translate(0, 0px); opacity:1" fill="url(#sw-gradient-0)" d="M0,294L120,253.2C240,212,480,131,720,155.2C960,180,1200,310,1440,367.5C1680,425,1920,408,2160,400.2C2400,392,2640,392,2880,383.8C3120,376,3360,359,3600,334.8C3840,310,4080,278,4320,261.3C4560,245,4800,245,5040,261.3C5280,278,5520,310,5760,302.2C6000,294,6240,245,6480,187.8C6720,131,6960,65,7200,40.8C7440,16,7680,33,7920,40.8C8160,49,8400,49,8640,81.7C8880,114,9120,180,9360,236.8C9600,294,9840,343,10080,326.7C10320,310,10560,229,10800,163.3C11040,98,11280,49,11520,40.8C11760,33,12000,65,12240,98C12480,131,12720,163,12960,171.5C13200,180,13440,163,13680,179.7C13920,196,14160,245,14400,269.5C14640,294,14880,294,15120,294C15360,294,15600,294,15840,253.2C16080,212,16320,131,16560,98C16800,65,17040,82,17160,89.8L17280,98L17280,490L17160,490C17040,490,16800,490,16560,490C16320,490,16080,490,15840,490C15600,490,15360,490,15120,490C14880,490,14640,490,14400,490C14160,490,13920,490,13680,490C13440,490,13200,490,12960,490C12720,490,12480,490,12240,490C12000,490,11760,490,11520,490C11280,490,11040,490,10800,490C10560,490,10320,490,10080,490C9840,490,9600,490,9360,490C9120,490,8880,490,8640,490C8400,490,8160,490,7920,490C7680,490,7440,490,7200,490C6960,490,6720,490,6480,490C6240,490,6000,490,5760,490C5520,490,5280,490,5040,490C4800,490,4560,490,4320,490C4080,490,3840,490,3600,490C3360,490,3120,490,2880,490C2640,490,2400,490,2160,490C1920,490,1680,490,1440,490C1200,490,960,490,720,490C480,490,240,490,120,490L0,490Z"/><defs><linearGradient id="sw-gradient-1" x1="0" x2="0" y1="1" y2="0"><stop stop-color="rgba(37.061, 0, 75.561, 1)" offset="0%"/><stop stop-color="rgba(255, 2.249, 101.245, 1)" offset="100%"/></linearGradient></defs><path style="transform:translate(0, 50px); opacity:0.9" fill="url(#sw-gradient-1)" d="M0,49L120,106.2C240,163,480,278,720,302.2C960,327,1200,261,1440,228.7C1680,196,1920,196,2160,196C2400,196,2640,196,2880,196C3120,196,3360,196,3600,179.7C3840,163,4080,131,4320,114.3C4560,98,4800,98,5040,81.7C5280,65,5520,33,5760,81.7C6000,131,6240,261,6480,294C6720,327,6960,261,7200,245C7440,229,7680,261,7920,294C8160,327,8400,359,8640,334.8C8880,310,9120,229,9360,204.2C9600,180,9840,212,10080,204.2C10320,196,10560,147,10800,171.5C11040,196,11280,294,11520,294C11760,294,12000,196,12240,163.3C12480,131,12720,163,12960,187.8C13200,212,13440,229,13680,236.8C13920,245,14160,245,14400,253.2C14640,261,14880,278,15120,261.3C15360,245,15600,196,15840,179.7C16080,163,16320,180,16560,163.3C16800,147,17040,98,17160,73.5L17280,49L17280,490L17160,490C17040,490,16800,490,16560,490C16320,490,16080,490,15840,490C15600,490,15360,490,15120,490C14880,490,14640,490,14400,490C14160,490,13920,490,13680,490C13440,490,13200,490,12960,490C12720,490,12480,490,12240,490C12000,490,11760,490,11520,490C11280,490,11040,490,10800,490C10560,490,10320,490,10080,490C9840,490,9600,490,9360,490C9120,490,8880,490,8640,490C8400,490,8160,490,7920,490C7680,490,7440,490,7200,490C6960,490,6720,490,6480,490C6240,490,6000,490,5760,490C5520,490,5280,490,5040,490C4800,490,4560,490,4320,490C4080,490,3840,490,3600,490C3360,490,3120,490,2880,490C2640,490,2400,490,2160,490C1920,490,1680,490,1440,490C1200,490,960,490,720,490C480,490,240,490,120,490L0,490Z"/><defs><linearGradient id="sw-gradient-2" x1="0" x2="0" y1="1" y2="0"><stop stop-color="rgba(120.119, 62, 243, 1)" offset="0%"/><stop stop-color="rgba(255, 175.574, 0, 1)" offset="100%"/></linearGradient></defs><path style="transform:translate(0, 100px); opacity:0.8" fill="url(#sw-gradient-2)" d="M0,0L120,24.5C240,49,480,98,720,171.5C960,245,1200,343,1440,326.7C1680,310,1920,180,2160,130.7C2400,82,2640,114,2880,114.3C3120,114,3360,82,3600,122.5C3840,163,4080,278,4320,277.7C4560,278,4800,163,5040,130.7C5280,98,5520,147,5760,204.2C6000,261,6240,327,6480,343C6720,359,6960,327,7200,285.8C7440,245,7680,196,7920,212.3C8160,229,8400,310,8640,334.8C8880,359,9120,327,9360,269.5C9600,212,9840,131,10080,106.2C10320,82,10560,114,10800,171.5C11040,229,11280,310,11520,294C11760,278,12000,163,12240,98C12480,33,12720,16,12960,24.5C13200,33,13440,65,13680,89.8C13920,114,14160,131,14400,163.3C14640,196,14880,245,15120,236.8C15360,229,15600,163,15840,147C16080,131,16320,163,16560,204.2C16800,245,17040,294,17160,318.5L17280,343L17280,490L17160,490C17040,490,16800,490,16560,490C16320,490,16080,490,15840,490C15600,490,15360,490,15120,490C14880,490,14640,490,14400,490C14160,490,13920,490,13680,490C13440,490,13200,490,12960,490C12720,490,12480,490,12240,490C12000,490,11760,490,11520,490C11280,490,11040,490,10800,490C10560,490,10320,490,10080,490C9840,490,9600,490,9360,490C9120,490,8880,490,8640,490C8400,490,8160,490,7920,490C7680,490,7440,490,7200,490C6960,490,6720,490,6480,490C6240,490,6000,490,5760,490C5520,490,5280,490,5040,490C4800,490,4560,490,4320,490C4080,490,3840,490,3600,490C3360,490,3120,490,2880,490C2640,490,2400,490,2160,490C1920,490,1680,490,1440,490C1200,490,960,490,720,490C480,490,240,490,120,490L0,490Z"/></svg>