<?xml version="1.0" standalone="no"?>
<svg xmlns:xlink="http://www.w3.org/1999/xlink" id="wave" style="transform:rotate(180deg); transition: 0.3s" viewBox="0 0 1440 490" version="1.1" xmlns="http://www.w3.org/2000/svg"><defs><linearGradient id="sw-gradient-0" x1="0" x2="0" y1="1" y2="0"><stop stop-color="rgba(165.195, 149.301, 234.936, 1)" offset="0%"/><stop stop-color="rgba(178.065, 232.659, 219.714, 1)" offset="100%"/></linearGradient></defs><path style="transform:translate(0, 0px); opacity:1" fill="url(#sw-gradient-0)" d="M0,245L120,220.5C240,196,480,147,720,130.7C960,114,1200,131,1440,179.7C1680,229,1920,310,2160,334.8C2400,359,2640,327,2880,261.3C3120,196,3360,98,3600,89.8C3840,82,4080,163,4320,236.8C4560,310,4800,376,5040,367.5C5280,359,5520,278,5760,220.5C6000,163,6240,131,6480,106.2C6720,82,6960,65,7200,73.5C7440,82,7680,114,7920,130.7C8160,147,8400,147,8640,147C8880,147,9120,147,9360,171.5C9600,196,9840,245,10080,269.5C10320,294,10560,294,10800,261.3C11040,229,11280,163,11520,114.3C11760,65,12000,33,12240,57.2C12480,82,12720,163,12960,236.8C13200,310,13440,376,13680,351.2C13920,327,14160,212,14400,196C14640,180,14880,261,15120,269.5C15360,278,15600,212,15840,171.5C16080,131,16320,114,16560,155.2C16800,196,17040,294,17160,343L17280,392L17280,490L17160,490C17040,490,16800,490,16560,490C16320,490,16080,490,15840,490C15600,490,15360,490,15120,490C14880,490,14640,490,14400,490C14160,490,13920,490,13680,490C13440,490,13200,490,12960,490C12720,490,12480,490,12240,490C12000,490,11760,490,11520,490C11280,490,11040,490,10800,490C10560,490,10320,490,10080,490C9840,490,9600,490,9360,490C9120,490,8880,490,8640,490C8400,490,8160,490,7920,490C7680,490,7440,490,7200,490C6960,490,6720,490,6480,490C6240,490,6000,490,5760,490C5520,490,5280,490,5040,490C4800,490,4560,490,4320,490C4080,490,3840,490,3600,490C3360,490,3120,490,2880,490C2640,490,2400,490,2160,490C1920,490,1680,490,1440,490C1200,490,960,490,720,490C480,490,240,490,120,490L0,490Z"/><defs><linearGradient id="sw-gradient-1" x1="0" x2="0" y1="1" y2="0"><stop stop-color="rgba(37.061, 0, 75.561, 1)" offset="0%"/><stop stop-color="rgba(255, 2.249, 101.245, 1)" offset="100%"/></linearGradient></defs><path style="transform:translate(0, 50px); opacity:0.9" fill="url(#sw-gradient-1)" d="M0,49L120,65.3C240,82,480,114,720,163.3C960,212,1200,278,1440,253.2C1680,229,1920,114,2160,57.2C2400,0,2640,0,2880,57.2C3120,114,3360,229,3600,302.2C3840,376,4080,408,4320,416.5C4560,425,4800,408,5040,400.2C5280,392,5520,392,5760,375.7C6000,359,6240,327,6480,269.5C6720,212,6960,131,7200,89.8C7440,49,7680,49,7920,81.7C8160,114,8400,180,8640,196C8880,212,9120,180,9360,155.2C9600,131,9840,114,10080,147C10320,180,10560,261,10800,285.8C11040,310,11280,278,11520,253.2C11760,229,12000,212,12240,179.7C12480,147,12720,98,12960,73.5C13200,49,13440,49,13680,57.2C13920,65,14160,82,14400,106.2C14640,131,14880,163,15120,179.7C15360,196,15600,196,15840,196C16080,196,16320,196,16560,220.5C16800,245,17040,294,17160,318.5L17280,343L17280,490L17160,490C17040,490,16800,490,16560,490C16320,490,16080,490,15840,490C15600,490,15360,490,15120,490C14880,490,14640,490,14400,490C14160,490,13920,490,13680,490C13440,490,13200,490,12960,490C12720,490,12480,490,12240,490C12000,490,11760,490,11520,490C11280,490,11040,490,10800,490C10560,490,10320,490,10080,490C9840,490,9600,490,9360,490C9120,490,8880,490,8640,490C8400,490,8160,490,7920,490C7680,490,7440,490,7200,490C6960,490,6720,490,6480,490C6240,490,6000,490,5760,490C5520,490,5280,490,5040,490C4800,490,4560,490,4320,490C4080,490,3840,490,3600,490C3360,490,3120,490,2880,490C2640,490,2400,490,2160,490C1920,490,1680,490,1440,490C1200,490,960,490,720,490C480,490,240,490,120,490L0,490Z"/><defs><linearGradient id="sw-gradient-2" x1="0" x2="0" y1="1" y2="0"><stop stop-color="rgba(120.119, 62, 243, 1)" offset="0%"/><stop stop-color="rgba(255, 175.574, 0, 1)" offset="100%"/></linearGradient></defs><path style="transform:translate(0, 100px); opacity:0.8" fill="url(#sw-gradient-2)" d="M0,392L120,343C240,294,480,196,720,163.3C960,131,1200,163,1440,196C1680,229,1920,261,2160,228.7C2400,196,2640,98,2880,73.5C3120,49,3360,98,3600,171.5C3840,245,4080,343,4320,375.7C4560,408,4800,376,5040,351.2C5280,327,5520,310,5760,253.2C6000,196,6240,98,6480,57.2C6720,16,6960,33,7200,40.8C7440,49,7680,49,7920,49C8160,49,8400,49,8640,98C8880,147,9120,245,9360,310.3C9600,376,9840,408,10080,383.8C10320,359,10560,278,10800,253.2C11040,229,11280,261,11520,294C11760,327,12000,359,12240,326.7C12480,294,12720,196,12960,187.8C13200,180,13440,261,13680,310.3C13920,359,14160,376,14400,318.5C14640,261,14880,131,15120,138.8C15360,147,15600,294,15840,359.3C16080,425,16320,408,16560,400.2C16800,392,17040,392,17160,392L17280,392L17280,490L17160,490C17040,490,16800,490,16560,490C16320,490,16080,490,15840,490C15600,490,15360,490,15120,490C14880,490,14640,490,14400,490C14160,490,13920,490,13680,490C13440,490,13200,490,12960,490C12720,490,12480,490,12240,490C12000,490,11760,490,11520,490C11280,490,11040,490,10800,490C10560,490,10320,490,10080,490C9840,490,9600,490,9360,490C9120,490,8880,490,8640,490C8400,490,8160,490,7920,490C7680,490,7440,490,7200,490C6960,490,6720,490,6480,490C6240,490,6000,490,5760,490C5520,490,5280,490,5040,490C4800,490,4560,490,4320,490C4080,490,3840,490,3600,490C3360,490,3120,490,2880,490C2640,490,2400,490,2160,490C1920,490,1680,490,1440,490C1200,490,960,490,720,490C480,490,240,490,120,490L0,490Z"/></svg>