<?xml version="1.0" standalone="no"?>
<svg xmlns:xlink="http://www.w3.org/1999/xlink" id="wave" style="transform:rotate(180deg); transition: 0.3s" viewBox="0 0 1440 480" version="1.1" xmlns="http://www.w3.org/2000/svg"><defs><linearGradient id="sw-gradient-0" x1="0" x2="0" y1="1" y2="0"><stop stop-color="rgba(165.195, 149.301, 234.936, 1)" offset="0%"/><stop stop-color="rgba(75.224, 0, 134.757, 1)" offset="100%"/></linearGradient></defs><path style="transform:translate(0, 0px); opacity:1" fill="url(#sw-gradient-0)" d="M0,144L120,176C240,208,480,272,720,272C960,272,1200,208,1440,176C1680,144,1920,144,2160,176C2400,208,2640,272,2880,312C3120,352,3360,368,3600,368C3840,368,4080,352,4320,312C4560,272,4800,208,5040,152C5280,96,5520,48,5760,32C6000,16,6240,32,6480,56C6720,80,6960,112,7200,144C7440,176,7680,208,7920,200C8160,192,8400,144,8640,104C8880,64,9120,32,9360,40C9600,48,9840,96,10080,112C10320,128,10560,112,10800,136C11040,160,11280,224,11520,256C11760,288,12000,288,12240,304C12480,320,12720,352,12960,352C13200,352,13440,320,13680,280C13920,240,14160,192,14400,176C14640,160,14880,176,15120,208C15360,240,15600,288,15840,272C16080,256,16320,176,16560,184C16800,192,17040,288,17160,336L17280,384L17280,480L17160,480C17040,480,16800,480,16560,480C16320,480,16080,480,15840,480C15600,480,15360,480,15120,480C14880,480,14640,480,14400,480C14160,480,13920,480,13680,480C13440,480,13200,480,12960,480C12720,480,12480,480,12240,480C12000,480,11760,480,11520,480C11280,480,11040,480,10800,480C10560,480,10320,480,10080,480C9840,480,9600,480,9360,480C9120,480,8880,480,8640,480C8400,480,8160,480,7920,480C7680,480,7440,480,7200,480C6960,480,6720,480,6480,480C6240,480,6000,480,5760,480C5520,480,5280,480,5040,480C4800,480,4560,480,4320,480C4080,480,3840,480,3600,480C3360,480,3120,480,2880,480C2640,480,2400,480,2160,480C1920,480,1680,480,1440,480C1200,480,960,480,720,480C480,480,240,480,120,480L0,480Z"/><defs><linearGradient id="sw-gradient-1" x1="0" x2="0" y1="1" y2="0"><stop stop-color="rgba(37.061, 0, 75.561, 1)" offset="0%"/><stop stop-color="rgba(82.736, 68.365, 239.489, 1)" offset="100%"/></linearGradient></defs><path style="transform:translate(0, 50px); opacity:0.9" fill="url(#sw-gradient-1)" d="M0,336L120,296C240,256,480,176,720,136C960,96,1200,96,1440,112C1680,128,1920,160,2160,144C2400,128,2640,64,2880,96C3120,128,3360,256,3600,312C3840,368,4080,352,4320,288C4560,224,4800,112,5040,112C5280,112,5520,224,5760,264C6000,304,6240,272,6480,224C6720,176,6960,112,7200,104C7440,96,7680,144,7920,168C8160,192,8400,192,8640,168C8880,144,9120,96,9360,96C9600,96,9840,144,10080,176C10320,208,10560,224,10800,264C11040,304,11280,368,11520,400C11760,432,12000,432,12240,424C12480,416,12720,400,12960,384C13200,368,13440,352,13680,288C13920,224,14160,112,14400,72C14640,32,14880,64,15120,88C15360,112,15600,128,15840,168C16080,208,16320,272,16560,272C16800,272,17040,208,17160,176L17280,144L17280,480L17160,480C17040,480,16800,480,16560,480C16320,480,16080,480,15840,480C15600,480,15360,480,15120,480C14880,480,14640,480,14400,480C14160,480,13920,480,13680,480C13440,480,13200,480,12960,480C12720,480,12480,480,12240,480C12000,480,11760,480,11520,480C11280,480,11040,480,10800,480C10560,480,10320,480,10080,480C9840,480,9600,480,9360,480C9120,480,8880,480,8640,480C8400,480,8160,480,7920,480C7680,480,7440,480,7200,480C6960,480,6720,480,6480,480C6240,480,6000,480,5760,480C5520,480,5280,480,5040,480C4800,480,4560,480,4320,480C4080,480,3840,480,3600,480C3360,480,3120,480,2880,480C2640,480,2400,480,2160,480C1920,480,1680,480,1440,480C1200,480,960,480,720,480C480,480,240,480,120,480L0,480Z"/><defs><linearGradient id="sw-gradient-2" x1="0" x2="0" y1="1" y2="0"><stop stop-color="rgba(120.119, 62, 243, 1)" offset="0%"/><stop stop-color="rgba(255, 179, 11, 1)" offset="100%"/></linearGradient></defs><path style="transform:translate(0, 100px); opacity:0.8" fill="url(#sw-gradient-2)" d="M0,432L120,424C240,416,480,400,720,344C960,288,1200,192,1440,128C1680,64,1920,32,2160,80C2400,128,2640,256,2880,304C3120,352,3360,320,3600,304C3840,288,4080,288,4320,256C4560,224,4800,160,5040,176C5280,192,5520,288,5760,304C6000,320,6240,256,6480,256C6720,256,6960,320,7200,328C7440,336,7680,288,7920,272C8160,256,8400,272,8640,272C8880,272,9120,256,9360,248C9600,240,9840,240,10080,208C10320,176,10560,112,10800,128C11040,144,11280,240,11520,264C11760,288,12000,240,12240,184C12480,128,12720,64,12960,80C13200,96,13440,192,13680,224C13920,256,14160,224,14400,232C14640,240,14880,288,15120,288C15360,288,15600,240,15840,256C16080,272,16320,352,16560,344C16800,336,17040,240,17160,192L17280,144L17280,480L17160,480C17040,480,16800,480,16560,480C16320,480,16080,480,15840,480C15600,480,15360,480,15120,480C14880,480,14640,480,14400,480C14160,480,13920,480,13680,480C13440,480,13200,480,12960,480C12720,480,12480,480,12240,480C12000,480,11760,480,11520,480C11280,480,11040,480,10800,480C10560,480,10320,480,10080,480C9840,480,9600,480,9360,480C9120,480,8880,480,8640,480C8400,480,8160,480,7920,480C7680,480,7440,480,7200,480C6960,480,6720,480,6480,480C6240,480,6000,480,5760,480C5520,480,5280,480,5040,480C4800,480,4560,480,4320,480C4080,480,3840,480,3600,480C3360,480,3120,480,2880,480C2640,480,2400,480,2160,480C1920,480,1680,480,1440,480C1200,480,960,480,720,480C480,480,240,480,120,480L0,480Z"/></svg>